#!OML:ASF G:\JayActor3\Patient Classification 1\Patient 1\Session 5\male.ASF
:FULLY-SPECIFIED
:DEGREES
1181
root 71.7941 15.8098 -6.21547 58.8826 -78.1031 -35.0712
lowerback 17.9156 -3.11183 9.94706
upperback 6.80987 -2.71119 2.23767
thorax -2.959 -1.4232 -2.66961
lowerneck 0.325678 0.528729 3.04883
upperneck -20.0198 0.610184 1.33932
head -6.10893 -0.284542 -0.0911421
rclavicle 3.1408e-014 2.78299e-015
rhumerus -28.4557 1.46356 -89.5306
rradius 46.7692
rwrist 0.561743
rhand -15.6167 -17.648
rfingers 7.12502
rthumb 10.5699 -47.3622
lclavicle 3.1408e-014 2.78299e-015
lhumerus -27.7358 -0.982163 82.4474
lradius 36.423
lwrist 19.0632
lhand -22.0607 19.9276
lfingers 7.12502
lthumb 4.35018 49.8629
rfemur -50.403 9.11636 28.8922
rtibia 42.2143
rfoot -12.2056 -6.85393
rtoes -31.1148
lfemur -47.0526 13.0304 -20.3146
ltibia 50.8485
lfoot -9.65837 12.711
ltoes -42.1123
1182
root 71.8324 15.8036 -6.20807 59.2024 -78.1086 -35.3349
lowerback 17.388 -3.08458 9.87395
upperback 6.69813 -2.73276 2.24564
thorax -2.80556 -1.42636 -2.63483
lowerneck 0.11519 0.533543 3.09873
upperneck -19.6781 0.605575 1.29686
head -5.9642 -0.275227 -0.113557
rclavicle 1.80894e-014 -4.7112e-014
rhumerus -28.4319 1.08619 -89.3747
rradius 46.7165
rwrist 2.00341
rhand -13.9672 -17.5843
rfingers 7.12502
rthumb 12.1607 -47.2109
lclavicle 1.80894e-014 -4.7112e-014
lhumerus -27.6 -1.07283 82.4063
lradius 36.4191
lwrist 19.2219
lhand -22.1564 19.946
lfingers 7.12502
lthumb 4.25777 49.8832
rfemur -50.2787 9.40084 28.7671
rtibia 41.6693
rfoot -12.496 -7.48319
rtoes -30.1603
lfemur -46.5935 12.9388 -20.0946
ltibia 49.8876
lfoot -10.6067 12.4914
ltoes -42.6425
1183
root 71.8708 15.7967 -6.19956 59.7356 -78.0938 -35.8368
lowerback 16.8806 -3.0572 9.84404
upperback 6.58011 -2.74419 2.26155
thorax -2.66757 -1.4253 -2.61695
lowerneck -0.0981419 0.540396 3.14016
upperneck -19.307 0.604857 1.26036
head -5.81025 -0.262701 -0.132807
rclavicle -3.77691e-014 2.78299e-014
rhumerus -28.3988 0.524766 -89.0889
rradius 46.6568
rwrist 4.37791
rhand -11.1607 -17.4256
rfingers 7.12502
rthumb 14.8657 -46.8723
lclavicle -3.77691e-014 2.78299e-014
lhumerus -27.4726 -1.16494 82.3696
lradius 36.4326
lwrist 19.4067
lhand -22.2517 19.9731
lfingers 7.12502
lthumb 4.1657 49.9121
rfemur -50.1488 9.67753 28.7133
rtibia 41.1427
rfoot -12.6964 -8.05041
rtoes -29.2842
lfemur -46.2832 12.8364 -19.8408
ltibia 49.2063
lfoot -11.3004 12.3278
ltoes -43.0183
1184
root 71.9088 15.7911 -6.19098 60.4105 -78.0297 -36.4714
lowerback 16.3699 -3.04119 9.86334
upperback 6.44681 -2.76131 2.29652
thorax -2.54407 -1.4277 -2.60487
lowerneck -0.334609 0.55505 3.17466
upperneck -18.9009 0.612905 1.21903
head -5.64183 -0.243971 -0.152724
rclavicle -7.95139e-016 3.10104e-014
rhumerus -28.3556 -0.12569 -88.7029
rradius 46.5958
rwrist 7.42967
rhand -7.41011 -17.0135
rfingers 7.12502
rthumb 18.4764 -46.156
lclavicle -7.95139e-016 3.10104e-014
lhumerus -27.3516 -1.23242 82.3328
lradius 36.4474
lwrist 19.5825
lhand -22.3506 19.9995
lfingers 7.12502
lthumb 4.07022 49.9404
rfemur -50.075 9.95114 28.7106
rtibia 40.638
rfoot -12.7656 -8.50298
rtoes -28.5148
lfemur -46.1919 12.8052 -19.6552
ltibia 48.8207
lfoot -11.7262 12.326
ltoes -43.0908
1185
root 71.947 15.7842 -6.1813 61.2282 -77.9596 -37.2801
lowerback 15.886 -3.02401 9.91043
upperback 6.31209 -2.77053 2.33183
thorax -2.43489 -1.42687 -2.60844
lowerneck -0.570413 0.571534 3.21136
upperneck -18.4729 0.62472 1.18112
head -5.46737 -0.223026 -0.171933
rclavicle 1.13307e-014 -2.14687e-014
rhumerus -28.3159 -0.741014 -88.3168
rradius 46.5311
rwrist 10.4434
rhand -3.59115 -16.3416
rfingers 7.12502
rthumb 22.1465 -45.0931
lclavicle 1.13307e-014 -2.14687e-014
lhumerus -27.2275 -1.29419 82.2963
lradius 36.4606
lwrist 19.7612
lhand -22.4487 20.0241
lfingers 7.12502
lthumb 3.97546 49.9668
rfemur -49.9705 10.2084 28.7583
rtibia 40.1455
rfoot -12.8404 -9.03019
rtoes -27.7085
lfemur -46.2544 12.8708 -19.5579
ltibia 48.6952
lfoot -11.9241 12.4605
ltoes -42.8691
1186
root 71.9858 15.7749 -6.1715 62.0652 -77.8689 -38.1669
lowerback 15.4438 -3.01751 9.96784
upperback 6.19733 -2.79093 2.37918
thorax -2.32615 -1.43197 -2.60184
lowerneck -0.816786 0.594828 3.23545
upperneck -18.0346 0.644896 1.14466
head -5.28848 -0.197108 -0.188697
rclavicle 2.00773e-014 -3.97569e-016
rhumerus -28.2566 -1.18701 -87.9936
rradius 46.4517
rwrist 12.9521
rhand -0.313784 -15.5862
rfingers 7.12502
rthumb 25.2898 -43.9298
lclavicle 2.00773e-014 -3.97569e-016
lhumerus -27.0613 -1.3377 82.2678
lradius 36.4542
lwrist 19.9649
lhand -22.5403 20.0314
lfingers 7.12502
lthumb 3.88706 49.9757
rfemur -49.8047 10.4453 28.8491
rtibia 39.6612
rfoot -12.9558 -9.55788
rtoes -26.9287
lfemur -46.4289 13.0953 -19.6083
ltibia 48.7741
lfoot -11.9436 12.778
ltoes -42.2915
1187
root 72.0249 15.7668 -6.16073 62.8624 -77.7911 -39.0545
lowerback 15.0336 -3.01503 10.0191
upperback 6.08753 -2.81521 2.41772
thorax -2.22894 -1.43952 -2.5995
lowerneck -1.06414 0.620807 3.26509
upperneck -17.5775 0.669467 1.10901
head -5.10428 -0.168879 -0.206071
rclavicle -6.85807e-014 -3.18055e-015
rhumerus -28.2104 -1.41923 -87.7856
rradius 46.3546
rwrist 14.6325
rhand 1.95793 -14.963
rfingers 7.12502
rthumb 27.4644 -42.9806
lclavicle -6.85807e-014 -3.18055e-015
lhumerus -26.8712 -1.38794 82.2349
lradius 36.4246
lwrist 20.1689
lhand -22.626 20.0253
lfingers 7.12502
lthumb 3.80431 49.9711
rfemur -49.5682 10.6599 28.9394
rtibia 39.1692
rfoot -13.2052 -10.1517
rtoes -26.1146
lfemur -46.5788 13.207 -19.5548
ltibia 48.9595
lfoot -12.066 12.9945
ltoes -41.8545
1188
root 72.065 15.7571 -6.14926 63.551 -77.7255 -39.9119
lowerback 14.689 -3.02177 10.0589
upperback 5.99563 -2.84833 2.44727
thorax -2.14793 -1.45224 -2.59664
lowerneck -1.30615 0.646864 3.30095
upperneck -17.1128 0.695583 1.07923
head -4.91934 -0.140479 -0.222435
rclavicle 1.78906e-014 -1.35174e-014
rhumerus -28.1708 -1.38261 -87.7397
rradius 46.2157
rwrist 15.1849
rhand 2.73516 -14.722
rfingers 7.12502
rthumb 28.2075 -42.6193
lclavicle 1.78906e-014 -1.35174e-014
lhumerus -26.6408 -1.46247 82.2125
lradius 36.3686
lwrist 20.4457
lhand -22.7001 19.9889
lfingers 7.12502
lthumb 3.73268 49.936
rfemur -49.2087 10.845 29.0357
rtibia 38.665
rfoot -13.6433 -10.8234
rtoes -25.2482
lfemur -46.6676 13.2857 -19.4594
ltibia 49.2041
lfoot -12.2282 13.1298
ltoes -41.4917
1189
root 72.1061 15.7466 -6.13813 64.0565 -77.6664 -40.6578
lowerback 14.3996 -3.03819 10.075
upperback 5.92736 -2.89403 2.47198
thorax -2.07158 -1.4716 -2.5822
lowerneck -1.66334 0.676122 3.35173
upperneck -16.1622 0.715003 1.04987
head -5.10175 -0.109647 -0.240059
rclavicle -1.55052e-014 3.45885e-014
rhumerus -28.1158 -1.23772 -87.7754
rradius 46.0366
rwrist 15.136
rhand 2.66973 -14.6826
rfingers 7.12502
rthumb 28.1449 -42.5902
lclavicle -1.55052e-014 3.45885e-014
lhumerus -26.3878 -1.59271 82.2134
lradius 36.3241
lwrist 20.8413
lhand -22.7043 19.9101
lfingers 7.12502
lthumb 3.72864 49.8572
rfemur -48.7348 11.0083 29.1207
rtibia 38.14
rfoot -14.1753 -11.6012
rtoes -24.3734
lfemur -46.6838 13.3505 -19.3563
ltibia 49.4536
lfoot -12.3862 13.2048
ltoes -41.1829
1190
root 72.1481 15.7391 -6.12836 64.3207 -77.6023 -41.1819
lowerback 14.1404 -3.06659 10.0754
upperback 5.85558 -2.95318 2.48799
thorax -2.01635 -1.49844 -2.56476
lowerneck -1.9157 0.694912 3.39413
upperneck -15.7095 0.733837 1.04328
head -4.87927 -0.0865915 -0.250693
rclavicle -9.14409e-015 5.56597e-015
rhumerus -28.0615 -1.07573 -87.8596
rradius 45.8269
rwrist 14.7746
rhand 2.14933 -14.7662
rfingers 7.12502
rthumb 27.6474 -42.7545
lclavicle -9.14409e-015 5.56597e-015
lhumerus -26.1245 -1.77587 82.22
lradius 36.2753
lwrist 21.2784
lhand -22.6486 19.7812
lfingers 7.12502
lthumb 3.78244 49.7274
rfemur -48.2595 11.187 29.1379
rtibia 37.6004
rfoot -14.6563 -12.2685
rtoes -23.61
lfemur -46.6622 13.3954 -19.2756
ltibia 49.6689
lfoot -12.5159 13.2466
ltoes -40.9017
1191
root 72.1903 15.735 -6.12002 64.3321 -77.5401 -41.4414
lowerback 13.8761 -3.10364 10.0462
upperback 5.77409 -3.02638 2.49604
thorax -1.9697 -1.53258 -2.53737
lowerneck -2.16505 0.707917 3.44118
upperneck -15.2486 0.74644 1.05104
head -4.65693 -0.0672896 -0.256733
rclavicle -3.4191e-014 -1.70955e-014
rhumerus -28.0132 -0.939965 -87.9574
rradius 45.6059
rwrist 14.3315
rhand 1.50476 -14.881
rfingers 7.12502
rthumb 27.0309 -42.9666
lclavicle -3.4191e-014 -1.70955e-014
lhumerus -25.8732 -1.99483 82.2314
lradius 36.2442
lwrist 21.7216
lhand -22.6036 19.5986
lfingers 7.12502
lthumb 3.8259 49.544
rfemur -47.8167 11.3845 29.0738
rtibia 37.0588
rfoot -15.0737 -12.8691
rtoes -22.8995
lfemur -46.6274 13.4245 -19.2402
ltibia 49.835
lfoot -12.5893 13.2528
ltoes -40.6449
